<svg width="240" height="240" viewBox="0 0 240 240" fill="none"
    xmlns="http://www.w3.org/2000/svg">
    <g clip-path="url(#clip0_1034_471)">
        <path d="M175.228 99.949L177.958 97.5866C182.6 93.5698 189.507 98.4989 187.218 104.195C183.156 114.304 191.815 124.93 202.536 122.993L205.524 122.453C211.201 121.427 214.259 128.872 209.5 132.133C200.443 138.337 202.353 152.194 212.701 155.771C218.291 157.704 217.147 165.805 211.392 166.242L210.181 166.334C199.284 167.162 193.824 179.908 200.742 188.367C204.46 192.913 199.442 199.348 194.127 196.85L190.567 195.178C180.727 190.554 169.535 198.181 170.239 209.03C170.66 215.523 162.146 218.297 158.661 212.803L157.522 211.006C151.699 201.824 138.301 201.824 132.478 211.006L131.339 212.803C127.854 218.297 119.34 215.523 119.761 209.03C120.465 198.181 109.273 190.554 99.4331 195.178L95.8731 196.85C90.5577 199.348 85.5402 192.913 89.258 188.367C96.1763 179.908 90.7157 167.162 79.8189 166.334L78.6076 166.242C72.8532 165.805 71.7086 157.704 77.2993 155.771C87.647 152.194 89.5573 138.337 80.5002 132.133C75.7411 128.872 78.7991 121.427 84.4758 122.453L87.4643 122.993C98.1853 124.93 106.844 114.304 102.782 104.195C100.493 98.4989 107.4 93.5698 112.042 97.5866L114.772 99.949C122.988 107.058 135.811 103.074 138.554 92.5618C140.286 85.921 149.714 85.921 151.446 92.5618C154.189 103.074 167.012 107.058 175.228 99.949Z" stroke="currentColor" stroke-width="8"/>
        <path d="M167 151.5C167 162.673 157.526 172 145.5 172C133.474 172 124 162.673 124 151.5C124 140.327 133.474 131 145.5 131C157.526 131 167 140.327 167 151.5Z" stroke="currentColor" stroke-width="8"/>
        <path d="M101 44C101 53.9411 92.9411 62 83 62C73.0589 62 65 53.9411 65 44C65 34.0589 73.0589 26 83 26C92.9411 26 101 34.0589 101 44Z" stroke="currentColor" stroke-width="10"/>
        <path d="M165.5 78.4982C157 47.6157 83.5 84.8867 83.5 84.8867M51.5 62.5042C9.46571 71.5704 23.1733 88.1531 66.4814 84.8804L83.5 84.8867M83.5 84.8867L83.5 106.498" stroke="currentColor" stroke-width="10" stroke-linecap="round"/>
    </g>
    <defs>
        <clipPath id="clip0_1034_471">
            <rect width="240" height="240" fill="white"/>
        </clipPath>
    </defs>
</svg>
