<svg width="192" height="100" viewBox="0 0 192 100" fill="none"
    xmlns="http://www.w3.org/2000/svg">
    <g clip-path="url(#clip0_670_229)">
        <mask id="mask0_670_229" style="mask-type:alpha" maskUnits="userSpaceOnUse" x="2" y="-122" width="547" height="221">
            <g clip-path="url(#clip1_670_229)">
                <path d="M95.646 53.8242C93.985 55.0742 89.761 59.2872 90.201 65.0002C90.64 70.7152 93.131 78.0412 97.234 80.6802C87.563 79.9462 83.9 77.4552 83.9 77.4552C83.9 77.4552 77.219 71.5662 80.283 61.3832C81.153 58.4902 83.407 56.2212 86.291 55.3202C91.078 53.8242 93.424 53.9182 95.646 53.8242Z" fill="black"/>
                <path d="M92.838 58.5562C91.692 60.7532 90.26 63.0072 92.838 72.9132C99.578 67.2512 103.824 62.6712 108.72 60.4742C111.95 59.0232 117.307 59.4352 117.307 59.4352C117.307 59.4352 109.355 51.5112 102.508 52.9882C96.862 54.2042 93.984 56.3562 92.838 58.5562Z" fill="black"/>
                <path d="M100.41 68.8125L93.424 73.9395C93.424 73.9395 96.348 80.6075 100.41 80.6795C107.343 80.8065 111.886 77.3105 111.886 77.3105C111.886 77.3105 104.466 74.0875 100.41 68.8125Z" fill="black"/>
                <path d="M114.963 60.7539C109.688 60.7539 100.653 66.8319 101.63 68.2269C108.802 78.4669 148.067 89.9649 183.785 98.3359C191.111 94.0879 190.818 85.5879 190.818 85.5879C190.818 85.5879 133.571 72.9139 114.963 60.7539Z" fill="black"/>
                <path d="M136.086 68.6603C136.086 68.6603 123.326 64.2993 119.043 60.7523C165.901 45.3913 181.893 43.5723 189.204 21.1953C189.204 21.1953 189.578 31.0373 188.659 44.9023C186.989 70.1073 164.892 60.5233 136.086 68.6603Z" fill="black"/>
                <path d="M78.333 61.1921C78.333 61.1921 78.274 62.8091 77.904 64.2291C63.429 66.1101 60.566 66.0881 49.598 67.6391C35.019 62.8091 12.397 65.8261 8.70502 44.4591C7.81802 37.0721 7.52302 24.9361 8.11402 16.6641C14.844 45.4641 34.701 49.5281 78.333 61.1921Z" fill="black"/>
                <path d="M82.83 77.6134C82.83 77.6134 78.186 74.0844 78.112 65.9844C74.977 67.1894 24.524 69.7364 2.13901 82.1384C0.947013 90.5234 7.80601 95.5484 7.80601 95.5484C7.80601 95.5484 70.588 80.0554 82.83 77.6134Z" fill="black"/>
                <path d="M188.198 20.2602C180.943 3.0712 136.537 3.38921 136.63 4.13121C136.74 5.00221 136.68 5.9672 136.626 6.8172C136.584 7.4852 136.536 8.24321 136.607 8.58721C136.661 8.83521 136.712 9.2572 136.756 9.7732C155.496 12.4272 171.412 9.47621 180.106 34.8392C183.575 30.8192 185.654 27.4092 188.096 20.5522C188.131 20.4512 188.156 20.3522 188.198 20.2602Z" fill="black"/>
                <path d="M17.002 33.7483C22.355 8.31828 36.808 12.0983 53.421 9.52328C53.502 7.83528 53.598 6.41229 53.702 5.89429C53.835 5.23029 53.986 4.87328 54.097 4.61328C54.171 4.43728 54.243 4.26928 54.253 3.47228C54.258 3.13828 13.199 -5.24171 9.05301 15.3263C9.05301 15.3263 9.27201 17.2753 10.289 20.1683C11.581 23.8403 13.464 28.8013 17.002 33.7483Z" fill="black"/>
            </g>
        </mask>
        <g mask="url(#mask0_670_229)">
            <rect x="2" y="-2" width="189" height="100" fill="currentColor"/>
            <path d="M11 78L16.5 76L23 74.5L27 91L14.5 94L11 78Z" fill="current"/>
        </g>
    </g>
    <defs>
        <clipPath id="clip0_670_229">
            <rect width="192" height="100" fill="white"/>
        </clipPath>
        <clipPath id="clip1_670_229">
            <rect width="546.7" height="220.336" fill="white" transform="translate(2 -122)"/>
        </clipPath>
    </defs>
</svg>
