<svg width="246" height="224" viewBox="0 0 246 224" fill="none"
    xmlns="http://www.w3.org/2000/svg">
    <path d="M6 77H178V194C178 196.761 175.761 199 173 199H11C8.23858 199 6 196.761 6 194V77Z" fill="#1AB494"/>
    <path d="M6 95H157V199H11C8.23858 199 6 196.761 6 194V95Z" fill="#43C3A4"/>
    <rect y="47" width="188" height="32" rx="5" fill="#43C3A4"/>
    <path d="M94 47C104.435 -28.188 214.406 1.26478 145.373 47H94Z" fill="#C92C44"/>
    <path d="M45.5753 47.999C-27.8687 7.87299 78.6657 -36.185 94 48L45.5753 47.999Z" fill="#C92C44"/>
    <path d="M45.2567 47.9999C-14.1471 10.3635 61.3118 -16.3014 87 47.2161L45.2567 47.9999Z" fill="#E33751"/>
    <path d="M94 47C109.166 -19.548 181.8 2.63572 131.515 47H94Z" fill="#E33751"/>
    <path d="M69.711 47C49.8651 28.2866 63.3603 15.8034 84 47H69.711Z" fill="#C92C44"/>
    <path d="M99 47C124.457 21.7302 140.06 27.0946 119.53 47H99Z" fill="#C92C44"/>
    <rect y="47" width="164" height="32" rx="5" fill="#72D7A4"/>
    <rect x="72" y="47" width="44" height="32" fill="#EF7181"/>
    <rect x="72" y="79" width="44" height="18" fill="#C92C44"/>
    <rect x="72" y="95" width="44" height="104" fill="#E33751"/>
    <path d="M133 146.008H240V219.008C240 221.769 237.761 224.008 235 224.008H138C135.239 224.008 133 221.769 133 219.008V146.008Z" fill="#FDB23F"/>
    <path d="M133 158.008H227V224.008H138C135.239 224.008 133 221.769 133 219.008V158.008Z" fill="#FEC34C"/>
    <rect x="129" y="127.008" width="117" height="20" rx="5" fill="#FDD2A6"/>
    <path d="M187.5 127.009C194 78.5077 262.5 97.5067 219.5 127.009H187.5Z" fill="#C92C44"/>
    <path d="M157.5 127.5C112 102.003 178 74.0066 187.5 127.501L157.5 127.5Z" fill="#C92C44"/>
    <path d="M157 127.508C120 103.51 167 86.5079 183 127.008L157 127.508Z" fill="#E33751"/>
    <path d="M187.5 127.51C197 84.0078 242.5 98.5092 211 127.51H187.5Z" fill="#E33751"/>
    <path d="M172.5 127.011C160 115.012 168.5 107.008 181.5 127.011H172.5Z" fill="#C92C44"/>
    <path d="M191 127.507C206.5 111.006 216 114.509 203.5 127.507H191Z" fill="#C92C44"/>
    <rect x="129" y="127.008" width="102" height="20" rx="5" fill="#FFE5C3"/>
    <rect x="174" y="127.008" width="27" height="20" fill="#EF7181"/>
    <rect x="174" y="147.008" width="27" height="12" fill="#C92C44"/>
    <rect x="174" y="158.008" width="27" height="66" fill="#E33751"/>
</svg>
